<?xml version="1.0" encoding="utf-8"?>
<!-- Generator: Adobe Illustrator 23.0.0, SVG Export Plug-In . SVG Version: 6.00 Build 0)  -->
<svg version="1.1" id="Layer_1" xmlns="http://www.w3.org/2000/svg" xmlns:xlink="http://www.w3.org/1999/xlink" x="0px" y="0px"
	 viewBox="0 0 480 399" style="enable-background:new 0 0 480 399;" xml:space="preserve">
<style type="text/css">
	.st0{opacity:0.06;fill:#231F20;}
</style>
<g>
	<path class="st0" d="M480,178.61v-9.12c-12.87,4.65-36.2,13.5-47.59,20.45C432.41,189.94,456.76,188.4,480,178.61z"/>
	<path class="st0" d="M480,37.84l-22.03-23.25c0,0,16.49,23.03,22.03,38.39V37.84z"/>
	<path class="st0" d="M273.74,251.14c0,0,21.83-14.92,69.29-25.36c0.17-0.04,0.34-0.08,0.52-0.11l8.43-0.91l5.13-2.75
		c0,0,23.45-3.66,28.95-4.4l7.51,3.3c0,0,8.61-2.38,14.66-1.83c0,0,1.83-3.85,4.76-3.66c0,0,31.41-1.87,67.01,4V214
		c-16.17-1.46-50.59-4.04-69.76-1.71l-4.4-4.4c0,0-0.45-3.54-1.02-9.01l69.09-32.03l6.08-0.22V73.59l-3.34,1.19l-29.68-24.46
		l16.76,22.53l-8.52-3.3l14.84,9.9v1.65l-34.34-8.38l-6.06-12.5l8.25,30.51l-17.87-36.55c0,0,10.85,42.57,16.92,54.45l-0.06,0.05
		l-36.65-38.02l6.87,10.17l-4.4-1.92l21.16,29.41c0,0-9.21-2.37-20.17-4.92l-0.99-17.07l-0.66,16.69
		c-13.65-3.14-29.37-6.4-33.34-5.7c6.94-7.75,12.3-15.93,12.3-15.93c2.75-4.12,15.39-20.06,15.39-20.06
		c-15.36,7.18-43.66,35.57-49.09,41.1c-0.56-1.55-0.97-3.63-0.91-6.36c2.56-0.18,8.96-3.23,12.63-27.87l8.52-56.62l-14.57,37.1
		l-1.65-25.56l-8.52,36.55L327.15,10.2l-1.1,3.57l-6.05-14.02l15.66,73.38c0,0-5.46-8.26-12.68-18.37l3.33-9.94l-5.49,6.93
		c-1.17-1.63-2.39-3.28-3.62-4.95l2.88-19.21c0,0-2.75,7.32-6.01,15.02c-7.69-10.14-15.68-19.71-20.74-23.08
		c0,0,7.54,14.38,17.33,30.75c-2.06,4.39-4.04,8.05-5.42,9.37l-1.1-19.42c0,0-3.17,8.4-6.12,17.27c-2.55-1.67-5.11-3.23-7.66-4.63
		c-2.61-12.18-6.13-27.84-8.94-37.57c0,0,0.92,32.25,3.66,46.36c0,0-23.64-44.16-29.32-51.12c0,0,14.84,37.74,25.1,58.45
		c0,0-29.32-31.52-41.23-41.41c0,0,22.91,37.56,50.21,61.2c0,0-2.75,0.73-9.17-4.03c0,0-36.46-28.77-53.68-37.74
		c0,0,13.56,17.41,21.8,24.37c0,0-21.99-5.31-35-9.89c0,0,30.05,21.98,64.68,34.45c0,0-38.11-2.38-53.5,0.73
		c0,0,21.98,4.58,34.26,9.34c0,0,28.04,13.74,36.28,8.98c0,0,6.96,4.77,6.6,9.35c0,0-34.81-14.11-56.25-18.87l28.21,17.77
		c0,0-31.15-2.57-36.28-0.55c0,0,9.71,2.75,16.67,5.32c0,0,35,10.44,53.5,10.63c0,0,0.92,5.13,2.75,6.6c0,0-29.5,7.88-48.37,18.87
		c0,0,30.5-0.26,52.41-4.69l9.7,42.25l-0.37,4.76l-1.65,1.47v1.47c0,0,2.38,0.91,7.7,7.69v2.38c0,0,7.33-0.73,12.64,3.85
		c0,0-49.47,11.73-67.98,24c0,0-6.6-2.93-5.86-11.91c0,0-2.01,6.59,0.55,13.74c0,0-20.34,10.44-26.93,14.47l-8.79-2.38l5.31,3.12
		c0,0-8.06,6.41-21.99,5.68l-6.05-3.3l2.38,3.66l-3.48,0.55c0,0-7.51-23.45-10.99-39.21l-4.11-11.8c0.55-0.31,1.12-0.6,1.73-0.85
		c0,0-0.74-0.01-2.03,0.01l-13.18-37.76l0.36-0.55c0,0,6.6,6.23,8.25,7.33c1.65,1.1,8.43,1.47,17.77-2.57
		c9.34-4.03,13.74-12.28,21.25-15.02l-27.85,0.37c0,0,17.41-24.19,22.17-36.46c0,0,2.75-6.96,5.5-9.71c0,0-23.64,16.12-36.46,27.67
		l-0.92-0.55l2.2-25.65l-5.68,7.51c0,0,3.3-54.97,1.47-69.26c0,0-11.73,43.97-13.38,52.4L172.6,88.8l-1.1,14.84l-9.53-42.88v39.03
		c0,0-8.25-27.85-8.61-33.71c0,0,0.18,33.16,2.93,47.82c0,0-15.39-28.03-23.27-37.01l4.03,16.67l-8.06-12.46l15.76,40.49
		c0,0-23.64-28.4-38.11-42.14c0,0,20.52,29.86,32.61,51.49l0.55,11.17l-18.14-10.08l-1.1-4.21l-1.1,3.11l-23.09-10.26l16.86,15.76
		l-14.84-6.23l-9.71-15.94l4.4,14.66l-22.17-8.25l25.1,15.02l8.61,20.89l-7.14-0.92l-17.59-19.24l10.26,19.05l-18.32-1.1
		c0,0,17.59,3.67,21.99,5.87l16.49,24.74l-22.72-15.21l-3.3-8.8l-0.18,7.51c0,0-20.7-12.46-32.62-16.49l33.35,26.57l0.37,4.21
		l-16.67-4.95l-3.11-4.76v4.03l-26.57-4.95c0,0,25.47,13.19,30.97,16.49l0.18,3.85H53.5l-8.61-8.8l4.21,8.06l-7.88,0.18l9.53,2.75
		l7.51,10.26l-22.35-15.76c0,0,28.58,34.63,45.07,49.47l-4.58,3.11l6.96-0.73l5.86,4.95c0,0-44.52-4.77-74.39,0
		c0,0,52.59,11.17,71.83,10.81c0,0-25.1,10.26-46.54,23.27l25.83-3.66c0,0,9.53,8.06,13.19,9.9c0,0-25.83,3.29-52.21,16.85
		c0,0-18.14,8.8-22.54,9.89l16.49-3.48L0,320.95c0,0,22.35-5.68,33.35-8.98c11-3.3,25.47-10.44,29.13-12.28l-8.24,12.46
		c0,0,10.08-6.41,15.76-8.06c0,0,11.73-6.05,15.39-15.03l0.83-1.59c3.76-1.78,14.96-6.78,30.39-10.94
		c3.61,5.19,8.74,13.88,13.62,26.77l6.05,17.18c0,0,0.69,6.73,10.99,7.42c0,0,6.18-0.14,8.8,2.06c0,0,3.53-2.53,5.74-2.66l0.72,0.05
		l0.73-2.93c0,0,11.73-12.64,19.24-16.67c7.51-4.03,10.81-8.61,10.81-8.61s8.8-8.06,19.24-11.91c0,0,2.93-2.02,5.31-4.95l12.28-9.16
		l8.25,0.18c0,0,3.66-5.68,6.6-7.69c0,0,11.72-8.8,23.82-13.74L273.74,251.14z M294.08,70.66c0,0-1.39-6.98-3.39-16.34
		c1.55,1.59,3.72,3.82,6.28,6.47C295.83,64.33,294.8,67.78,294.08,70.66z M405.66,217.42l-11.73,0.73l-4.77-1.65l16.67-0.55
		L405.66,217.42z M462.1,116.28l-8.8-7.42l9.62,3.3L462.1,116.28z M453.85,129.47l-10.17-10.17l4.4-3.57L453.85,129.47z
		 M463.2,106.11l-11.82-1.1l-5.28-10.9l17.1,7.87V106.11z M477.21,97.87l-9.62-2.2l-0.55-3.3L477.21,97.87z M435.88,73.04
		l28.96,18.5l-0.55,4.67l-18.23-2.18L435.88,73.04z M434.34,121.5l23.64,25.01c0,0-14.74-2.27-32.76-4.5l6.92-6.22l-14.41,5.31
		c-1.43-0.17-2.87-0.33-4.31-0.5l15.26-20.29C430.59,120.77,432.48,121.16,434.34,121.5z M425.48,119.53l-19.72,18.74l-1.48-25.48
		C411.16,115.33,418.42,117.72,425.48,119.53z M402.93,154.14c1.66,2.24,5.02,3.37,5.02,3.37l6.18-5.55
		c8.31,1.91,16.5,3.54,23.5,4.45l-18.97,2.75l33.26,4.12l-26.93,13.74c0,0-14.31,14.31-20.31,20.46
		C403.53,185.99,402.06,167.37,402.93,154.14z M348.92,107.51l0.49,0.8c3.02,3.85,5.5,0.82,5.5,0.82c4.61-2.41,9.5-7.01,13.78-11.79
		c0.57,0.29,15.21,7.72,33.02,14.49l-0.91,22.87L370.3,98.42l23.21,40.23c-5.11-0.41-9.96-0.72-14.28-0.87l-21.29-4.73l8.88,4.92
		c-0.83,0.08-1.6,0.18-2.28,0.31c0,0,2.4,0.76,6.42,1.99l25.19,13.95c3.4-0.8,4.9-2.61,5.47-3.54c-0.07,7.27-0.14,31.56,1.63,48.32
		c-0.52,0.54-0.89,0.93-1.05,1.13l1.12-0.52c0.43,3.93,0.97,7.42,1.63,10.14l-4.58-4.22l4.76,7.14c0,0-13.19,2.56-28.95-5.31
		l-20.34-30.23c0,0-6.78-60.65-8.06-68.35L348.92,107.51z M373.96,207.16c0,0-10.81-2.38-12.28-11.36l-0.37,5.68l-2.93-4.03
		l-2.2-16.86L373.96,207.16z M345.38,107.49l-4.82-4.59c0.79-0.31,1.56-0.93,2.26-2l0.38-0.76l1.27,0.4L345.38,107.49z
		 M336.88,88.41c2.57,2.89,4.98,5.2,7.15,6.72c0.1,0.99-0.12,1.97-1.27,2.26c-1.33-1.48-3.76-4.14-7.02-7.51L336.88,88.41z
		 M345.17,110.78l0.76,0.56l7.7,63.03l-18.67-23.75l4.56,0.11c0,0-9.16-6.23-5.31-33.53C334.2,117.2,341.82,120.74,345.17,110.78z
		 M334.53,100.62l-0.37,1.39c-2.1-1.16-4.16-2.13-5.82-2.59l2.4-3.1c0.59,0.65,1.14,1.27,1.63,1.82
		C332.37,98.14,333.24,99.38,334.53,100.62z M329.88,79.69c1.03,1.39,2.06,2.73,3.07,4.01l-2.7,0.63c-1.05-1.03-2.15-2.1-3.28-3.18
		L329.88,79.69z M319.64,64.77c2.42,3.74,4.87,7.41,7.3,10.85l-3.36,2.35c-2.05-1.9-4.2-3.83-6.43-5.77L319.64,64.77z M312.77,91.55
		l-2.2-1.47l3.67-7.88l3.3,3.3L312.77,91.55z M325.41,198l-10.43-38.62c2.45-0.5,4.79-1.05,6.98-1.66
		C323.62,162.26,327.28,175.27,325.41,198z M335.85,217.79c0,0-9.16-3.11-9.53-12.83c0,0,3.51-33.94-4.01-47.35
		c1.14-0.32,2.24-0.66,3.28-1.02c0,0,4.03-0.37,6.6-6.05l0.18,0l21.99,27.66l1.65,16.49l-4.58-4.4l8.98,12.64v1.47l5.13,1.46
		l10.08,2.93l4.76,6.78l-26.57,4.77c0,0-6.6-4.21-7.33-7.33l-2.01,5.86C344.47,218.89,343,221.82,335.85,217.79z M59.91,197.82
		l14.11,4.58c2.93,3.66,4.95,14.84,4.95,14.84L59.91,197.82z M194.59,228.97c0,0,4.22,27.67,12.09,41.96c0,0-8.24-1.46-10.99,1.83
		l-10.44-1.65c0,0-9.6-16.66-19.43-29.18c2.77-1.19,15.64-6.99,21.99-14.98c0,0,1.67-3.13,5.01-5.69
		C193.46,223.73,194.05,226.3,194.59,228.97z M178.09,186.27l0.13-0.18c3.26,5.35,9.57,16.95,14.03,33.07
		c-6.49,0.29-18.93,1.47-28.26,6.14C163.99,225.3,173.88,208.08,178.09,186.27z M165.27,242.16c0,0,0.13-0.05,0.37-0.15
		c3.19,4.87,12.46,19.24,16.67,27.82c0,0-12.11-1.3-29.19-0.27c0.63-14.6,1.25-26.69,1.58-33.08
		C156.67,239.81,159.92,242.75,165.27,242.16z M155.01,205.15V194.7l2.75,0.37C158.31,200.93,155.01,205.15,155.01,205.15z
		 M151.71,172.9c0,0,3.85,0.18,6.05,3.48l-6.23-0.18L151.71,172.9z M152.08,224.38c-6.78-4.76-14.47-13.92-14.47-13.92l4.58-2.2
		L152.08,224.38z M142.37,171.43c0,0-0.92,7.7-8.79,7.88l-0.92-8.98L142.37,171.43z M132.11,224.38c0,0,10.26,7.51,16.49,6.42
		c0,0,2.38-0.74,3.3-2.57c0,0,0.19,1.52,0.8,3.56l-1.06,37.86c-5.66,0.38-11.83,1.02-18.26,2.04c-0.19-1.13-0.37-2.26-0.56-3.39
		c0.2-0.21,0.39-0.43,0.57-0.68c0,0,3.66,0.37,0-4.4l-20.7-26.02l0.37-4.95C113.05,232.27,126.06,227.87,132.11,224.38z
		 M130.64,265.61l-13.74,0.55c0,0-2.29-9.35-6.23-14.02l1.19-12.28c0,0,0.18-0.55,1.28,1.01L130.64,265.61z M120.93,167.4
		c0,0,0.37,4.03-1.1,5.32l-1.83-5.86L120.93,167.4z M120.38,151.09l-0.37,2.2H118l-0.92-4.77L120.38,151.09z M103.71,140.1
		c11.36,3.11,13.74,18.14,13.74,18.14h-4.76L103.71,140.1z M103.52,163.37l4.21,1.1l3.3,8.98L103.52,163.37z M114.7,216.14
		l-4.95,2.01l-1.65-8.98C108.1,209.18,111.77,210.46,114.7,216.14z M116.62,266.62l-4.81,0.14l-6.18-10.17l-1.1-3.71l2.74,0.96
		C108.1,257.28,116.62,266.62,116.62,266.62z M104.39,258.1c0,0,4.95,6.32,5.36,9.62c0,0-12.92,1.93-14.71,1.65
		C95.05,269.37,107.28,266.48,104.39,258.1z M106.82,206.98l-4.03,12.46l-2.93-13.01C99.86,206.43,102.42,205.15,106.82,206.98z
		 M99.45,250.54c2.34,1.51,2.48,4.81,2.48,4.81h-2.61L99.45,250.54z M93.26,183.53c2.2,1.1,2.75,3.3,2.75,3.3l-3.11-0.55
		L93.26,183.53z M88.32,214.86l-4.22-9.71l4.58-0.37C88.68,204.78,90.7,213.03,88.32,214.86z M86.3,287.32l1.1-2.1l-15.39-9.9
		l17.59-4.76h22.3c0.36,0.37,1.81,1.93,3.92,4.86C105.79,278.12,95.68,281.96,86.3,287.32z M114.08,270.56h14.36
		c0,0,1.79-0.21,3.46-1.43l0.5,2.73c-4.85,0.8-9.83,1.81-14.85,3.11C116.39,273.26,115.23,271.77,114.08,270.56z M137.1,319.39
		c0,0-9.16-28.37-18.8-43.3c4.46-1.16,9.25-2.24,14.3-3.14l9.03,49.19c0,0,2.75,2.75,4.26,4.81
		C145.89,326.95,139.3,326.12,137.1,319.39z M149.6,326.81l-6.05-4.53c0,0-5.86-25.14-10-49.5c5.73-1,11.78-1.77,18.05-2.18
		l-0.9,32.3c0,0,1.51,18,4.26,23.77L149.6,326.81z M184.32,302.62l-2.93,0.73c0,0-3.3,5.32-15.21-2.74c0,0,3.3,5.31,12.64,6.41
		l-19.05,17.41l-0.16,1.91l-2.45,0.2c0,0-5.63-17.59-4.53-45.07c0.15-3.76,0.3-7.43,0.45-10.95c9.8-0.55,20.09-0.21,30.51,1.52
		l4.58,3.66l11.18,0.91c0,0,5.68-3.85,14.29,0l6.6,0.19C220.24,276.79,192.02,295.11,184.32,302.62z"/>
	<path class="st0" d="M480,56.88c-4.81-2.16-21.52-9.97-31.1-18.37L480,72.85V56.88z"/>
	<path class="st0" d="M480,356.75l-2.09,1.21l-1.28-20.89l3.38-9.5v-3.3l-3.92,5.83l-2.38-0.18l-2.01-16.31l-4.03,22.53l-3.66-0.92
		c-1.1-4.4-10.99-25.47-10.99-25.47l2.56-7.14l-3.48,3.48l-3.67-6.05l1.47,11.18l-4.95,6.05l-3.66-4.95l1.47,9.89h-2.93l-4.95,11.18
		l-2.75-2.75l4.76-31.33l-8.79,28.77l-6.05-5.13l-7.7-30.05l1.1,13.74l-3.85-5.68c-1.1,6.78,7.33,31.15,7.33,31.15l-6.6-2.93
		l8.8,8.79l-0.18,2.02c-5.32-2.01-33.16-33.35-33.16-33.35l8.06,15.57l-6.05-3.48l16.12,19.06l-24-15.94l23.64,26.75l0.73,5.31
		l-5.31-0.73l-15.76-21.44l4.03,9.16l-4.03-2.56c4.4,4.58,8.25,13.92,8.25,13.92h-4.03l-5.31-5.5l1.65,5.86l-2.93,0.37l-3.85-11.91
		l0.37,8.25l-2.75-3.85l1.65,9.53l-2.75-0.73l6.59,16.67l-2.01,0.92l-11.54-10.08l5.32,16.31l-9.9-5.31l-1.83-8.43l-2.02,5.68
		l-4.03-0.92c-1.28-5.86-5.86-19.61-5.86-19.61l-1.1,11.73l-13.38-25.84l6.41,21.25l-9.16-8.24l5.86,15.39l-20.71-28.77
		c0.73,10.08,10.44,41.04,10.44,41.04l-6.05-8.98l0.19,9.34l-16.49-2.57l17.77,6.78l0.73,7.14h-8.06l-24.92-21.62l25.1,29.68
		l-7.51-4.21l4.95,6.05l-49.1-34.63l34.08,27.3l-13.56-4.58L306.22,399H480V356.75z M325.83,397.17l-3.67-4.4l4.77,0.18l1.65,4.4
		L325.83,397.17z M451.52,317.28l7.51,21.81l-2.01,0.91C457.02,340,449.69,328.09,451.52,317.28z M444.19,383.42l0.37-3.66
		c4.21-0.18,7.51,3.3,7.51,3.3L444.19,383.42z M459.21,354.29l-2.2-7.14l3.66-2.02l1.83,6.23L459.21,354.29z M474.97,372.43
		l3.48-0.37l-3.85,4.77L474.97,372.43z"/>
</g>
</svg>
