<?xml version="1.0" encoding="utf-8"?>
<!-- Generator: Adobe Illustrator 23.0.0, SVG Export Plug-In . SVG Version: 6.00 Build 0)  -->
<svg version="1.1" id="Layer_1" xmlns="http://www.w3.org/2000/svg" xmlns:xlink="http://www.w3.org/1999/xlink" x="0px" y="0px"
	 viewBox="0 0 258.1 260.4" style="enable-background:new 0 0 258.1 260.4;" xml:space="preserve">
<style type="text/css">
	.st0{fill:#FFFFFF;}
</style>
<path class="st0" d="M58,119c3.9-0.8,6.1-1.9,11-0.6s5.3,1.1,5.6,0.6s2-0.7,0.5-1.8c0,0-2.3-3.1-11.5-2.9s-9.9,2.2-10.2,3.7
	S54.1,119.8,58,119z M68.7,127.3l5.9-2.3c0,0,3.9-1.3,6.9-1.2c3,0.1,8.2-4.7,8.2-4.7s-6.6-1.6-11.8,2c-5.2,3.6-8.9,3.1-8.9,3.1
	s-6-0.2-6.9,3C61.2,130.4,68.7,127.3,68.7,127.3z M149.7,58.5c0,0,18.4,2.1,28.9-3.9s14.1-2.1,14.1-2.1c-3.1,9.2,3.5,24.3,6.7,31.7
	c3.2,7.5-2.5,7.5-2.5,7.5s-6.3,1.1-10.8,6.7s-18,9.3-18,9.3s13.7,1.1,28.1-7.2c21.3-12.2,6.9-29.6,6.9-29.6c-2.7-2-2.8-14-2.8-14
	c-4.1-4.1-4.8-14.1-4.8-14.1c-20.8,8.7-53.2,10.4-53.2,10.4c-2.3,0-3.2-0.9-3.2-0.9c-10.8,4.5-4.5,11.1-4.5,11.1
	C138.7,65.1,149.7,58.5,149.7,58.5z M100.2,98.1c0,0,4.8-11.5,3.3-19.5c0,0,0.1-2.9,2-4.2c0,0-2-0.3-2.4,0.5c0,0,0-1.7-3.8-2.8
	c0,0,0.8,4.1-1.3,7.8C95.9,83.6,93.8,93.4,100.2,98.1z M44.1,109.5c0.3,2.5,2.9,3.5,9.7,2.1c6.8-1.3,20.1-0.9,20.1-0.9
	c-4-2.8-10-1.6-10-1.6s-5.2,1.6-12.8-0.4S44.1,109.5,44.1,109.5z M106.6,96.8c0.1,3-2.5,6.8-2.5,6.8c20.3-8.9,8.1-26.9,8.1-26.9
	c2,6.2-0.3,11-0.3,11C110.5,89.4,106.5,93.8,106.6,96.8z M162.5,95.4c0,0-4.8,3.5-8.9,3.2c0,0-9.6-1.9-26.9,7.7
	C126.6,106.3,151.7,110.6,162.5,95.4z M149.1,84.6c0,0-2.1,1.3-3.9,1.3c0,0,6.9,3.5,9.1,0.1c2.1-3.3,1.6-5.3,1.6-5.3
	S153,80.7,149.1,84.6z M141,125.1c-12.3-11.4-32-5.3-32-5.3c-4.5,2-8.3,0.5-8.3,0.5s-2.1-0.7-4.2,0.7c-2.1,1.4-1.6,4-1.6,4
	c1.2-1.7,4.2-1,4.2-1c2.7,0.6,5.6-0.6,5.6-0.6c4.1-1.2,7.2-0.6,7.2-0.6c4.7,1.2,10,0.2,10,0.2s-2.2,0.5,0.4,0s4.5-0.3,4.5-0.3
	c22.1,4.5,16.9,24.6,16.9,24.6c-8.5,22.8-22.7,24-22.7,24c-4.4,0.5-9.3,3.8-9.3,3.8c12-18.6,4.4-27.7,4.4-27.7
	c-1.9-1.9-3.7-6.7-3.7-6.7c-2.2-1-4.1,2.1-4.1,2.1s7.2,9.4-2.6,24.9s2.1,24.3,2.1,24.3c0.7-10.8,5.8-11.8,8.5-12.3s7.2-1.9,7.2-1.9
	c15.3-5.1,26.5-22.5,28.1-32.8S141,125.1,141,125.1z M239,99.1c-9.3,6.1-44,15.7-85.3,17.3c0,0,74.9,6.7,103.5-23.7
	c0,0,4-8.3-4.8-10.9c0,0-4.5,4-13.1,1.9C239.3,83.7,248.3,93,239,99.1z M153.8,123c1.5,0.3,20.3,4.7-0.6,35.8
	C153.1,158.8,197.7,131,153.8,123z M93.4,167.3c-5.1,0.7-8.8,0.4-11.9,3.9c0,0,2.2-5.5-1.5-16.1c-3.7-10.7,2.2-16.9,2.2-16.9
	s2.9-3.1-0.1-4.6c-2.9-1.5-7.6,2.1-8.4,8.7c-0.8,6.5,0.2,9.5-1.1,12.9c-1.3,3.4,1.2,9.1,1.2,9.1s3.9,8.9-1.7,10.6
	c0,0,3.1,1.6,5.9,0.7s7-1.9,10.9-1.6c3.9,0.3,8.5-0.1,11.4-2.7c0,0-0.9-3.1,3.6-8.7C104,162.4,98.5,166.7,93.4,167.3z M82.4,80.6
	c6.8,8.2,4,11.1,4,11.1s-2.3,5.1,5.3,7.6c0,0-0.4-13.9-7.3-21.6s-4.8-10.6-4.8-10.6S75.6,72.4,82.4,80.6z M52.7,78.9
	c0,0,5.5,4.9,0.9-3.5c-4.5-8.4-0.4-24-0.4-24s3.3-11.2,3.7-15.5s2.9-8.4,2.9-8.4s5.2-6.4,6.4-12.3s7.3-7.3,7.3-7.3
	c7.6-2.3,7.3,5.3,7.3,5.3c0,2.3,2.8,4.7,2.8,4.7c16.7,8.7,29.1,27.2,29.1,27.2s6.9,7.3,10.1,26.5s-11.1,31.6-11.1,31.6
	c4.8,3.9,9.1,0,9.1,0C152.7,56.8,95,20.8,95,20.8S85,14.4,82.8,7.6S78,2.8,78,2.8s-12.1-12.6-27.3,25C35.5,65.5,52.7,78.9,52.7,78.9
	z M68.5,81.4c0,0,6.4,16.9,22.1,21.8c0,0-8.8-5.7-10-12.9c-1.2-7.2-10.6-8-10.6-8S68.8,82.2,68.5,81.4z M1.7,93.8
	c-2.7,14.4,7.7,24.7,8.7,25.5c0.9,0.8,5.2,8.8,5.6,13.6c0.4,4.8,7.9,11.3,14.1,14.7c6.3,3.3,5.6,12.5,5.6,12.5s0.8,2.4,2.7,2.4
	s2.5-0.4,3.6-2.9s2.9-10.8,11.5-15.2c8.5-4.4,15.9-6.5,21.1-13.7c0,0-7.5-0.5-12,3.5s-9.2,4.3-10.9,4.7s-6.5,1.6-8.1,5.6
	c0,0-46.9-19.9-30.3-77.9c0,0,6.1,5.7,13.5,7.5c7.3,1.7,11.2,6.5,11.2,6.5s12.8,12.1,27.3,13.1c0,0-4.3-1.7-5.5-3.6s-4-4.4-5.7-5.2
	c-1.7-0.8-6.8-2.1-10.9-8.4c-4.3-6.4-11.8-11-14.7-13s-4.8-2.9-10.8-12.1s-7.3-9.1-14-3.5S1.4,71.8,1.4,71.8S4.3,79.4,1.7,93.8z
	 M148.6,94.9c0,0,4.1,2.8,11.7-3.5C160.3,91.4,153.1,88.1,148.6,94.9z M212.9,95.5c2.6,1.4,0.6,3.8,0.6,3.8
	c-20.8,18.4-97,11.4-97,11.4h-3c91.1,14.6,116.8-18.6,116.8-18.6c-8,3.4-8-1.6-8-1.6c1.6-7.6-7.8-3-7.8-3
	C205.1,93.5,212.9,95.5,212.9,95.5z M58.4,96.2c-1.5-0.7-5.3-2.8-5.3-2.8s-14.9-4.9-1.2,3.4c0,0,10,4.5,12.3,5.8
	c2.3,1.3,10.2,3.2,11.9,4.6c0,0,7,2.2,8.2,0.3c1.2-1.9-3-2.4-3-2.4s-11.3-3.2-14.6-5.5C63.4,97.3,59.9,96.9,58.4,96.2z M139.9,85.3
	c-0.7-14.5-2.5-0.7-3.1-0.5c-0.5,0.1-0.9,7.2-0.9,7.2s0.5,2-2.4,2.9s-2.9,4.8-2.9,4.8S140.6,99.8,139.9,85.3z M146.4,204.6h-0.1
	l0.1,0.2V204.6z M64.6,239.8c-5.7-23-19.2-38.8-19.2-38.8H40v0.3l0,0l-11,25.3l-10.6-22.2h-7.3l-11,54.8h7l8.9-44.8l16.5,36.5h7.9
	l-7.3-16l11-26.1c12,18.7,16.5,37.4,18,50.2h6.4c-0.8-7.3-2.4-14-4.3-19.9L64.6,239.8z M258,259l-18.2-55.5h-7.2
	c0,0-28.2,24.6-29.1,55.1h7.3c0,0-2.3-10.9,7.2-26.8l32.8,27.2c0,0,1.7,0,3.5,0C256.2,259,258,259,258,259z M222.2,225
	c0,0,12.5-16.9,12.9-16.9l13.2,40L222.2,225z M140.7,203.8h-7.4v55.8h7.4V203.8z M199.1,212c0,0,0.1-7.9-10.8-8.1h-41.8v4.7h38.8
	c19.4,2.3-13.1,17.6-13.1,17.6l-11.7-14.4h-7.2v47.3h7.2v-37.9l32,38h7.1L176,230.5C176,230.4,198.7,221.5,199.1,212z M98.6,203.7
	c-16.9,0-30.7,12.5-30.7,27.8s13.7,27.8,30.7,27.8s30.7-12.5,30.7-27.8C129.3,216.1,115.5,203.7,98.6,203.7z M98.5,253.5
	c-13.5,0-24.4-9.9-24.4-22.2s10.9-22.2,24.4-22.2s24.4,9.9,24.4,22.2S112,253.5,98.5,253.5z"/>
</svg>
